<svg width="91" height="29" viewBox="0 0 91 29" fill="none" xmlns="http://www.w3.org/2000/svg">
<path fill-rule="evenodd" clip-rule="evenodd" d="M64.8584 14.5105C64.8584 22.4997 59.7809 29 51.7232 29C43.8311 29 38.588 22.4786 38.588 14.4895C38.588 6.50036 43.6287 0 51.7232 0C59.8362 0 64.8584 6.52133 64.8584 14.5105ZM0.286692 0.566111H12.0974C22.2523 0.566111 26.226 7.36004 26.226 14.5523C26.226 21.8705 21.1301 28.3918 11.4351 28.3918H0.305089C0.102726 28.3918 0.0291388 28.245 0.0291388 28.1192C0.0291388 27.9724 0.157915 27.8466 0.341883 27.8466H2.4207C3.06458 27.8466 3.48771 27.4063 3.48771 26.5885V2.41137C3.48771 1.80328 3.23016 1.13227 2.38392 1.13227H0.268296C0.102726 1.13227 0.0107422 1.00646 0.0107422 0.859676C0.0107422 0.733862 0.0475356 0.566111 0.286692 0.566111ZM7.66321 27.0918C7.66321 27.6998 7.90237 27.8886 8.25191 27.8886H11.3793C19.0876 27.8886 21.8839 21.1576 21.8839 14.4055C21.8839 7.65357 18.922 1.11128 12.4095 1.11128H8.15992C7.7184 1.11128 7.6816 1.53066 7.6816 1.71937L7.66321 27.0918ZM27.0536 0.817738C27.0536 0.649987 27.2191 0.566111 27.4031 0.566111V0.58708H37.3742C37.595 0.58708 37.6869 0.712894 37.6869 0.859676C37.6869 1.00646 37.595 1.1113 37.4294 1.1113H35.5345C34.8355 1.1113 34.4491 1.57262 34.4491 2.2646V26.7143C34.4491 27.6789 35.2034 27.8677 35.4794 27.8677H37.411C37.6686 27.8677 37.7053 28.0354 37.7053 28.2031C37.7053 28.3709 37.503 28.3918 37.3559 28.3918H27.348C27.0877 28.3918 27.0893 28.2613 27.0903 28.176L27.0904 28.1612C27.0904 28.0773 27.1088 27.8677 27.348 27.8677H29.4083C29.9971 27.8677 30.3282 27.1127 30.3282 26.6096V2.51622C30.3282 1.46777 29.8683 1.09033 29.39 1.09033H27.3111C27.1455 1.09033 27.0536 0.98549 27.0536 0.817738ZM43.0405 14.4895C43.0405 6.79388 46.0574 0.566111 51.7236 0.566111C57.2794 0.566111 60.4068 6.79388 60.4068 14.4895C60.4068 22.1851 57.5554 28.4129 51.7236 28.4129C46.0759 28.4338 43.0405 22.1851 43.0405 14.4895ZM90.6137 28.2241C88.1764 28.5149 86.5794 25.0729 85.2428 22.192C84.8443 21.333 84.469 20.5239 84.1013 19.8785C82.9056 17.8025 80.3668 15.6847 77.8648 15.2654C81.9857 14.9928 86.6033 13.4829 86.6033 8.15685C86.6033 3.83726 84.2669 0.566111 75.694 0.566111H65.8151C65.6864 0.566111 65.5575 0.649987 65.5575 0.817738C65.5575 0.98549 65.6864 1.09033 65.8151 1.09033H68.0779C68.5562 1.09033 69.0161 1.46777 69.0161 2.51622V26.6096C69.0161 27.1127 68.6849 27.8677 68.0963 27.8677H65.8703C65.6864 27.8677 65.6127 28.0354 65.6127 28.1192C65.6127 28.2031 65.6864 28.3918 65.8703 28.3918H76.3563C76.5035 28.3918 76.6323 28.308 76.6323 28.1403C76.6323 27.9724 76.5403 27.8677 76.3379 27.8677H74.2224C73.9464 27.8677 73.1921 27.6579 73.1921 26.7143V15.3282H74.2775C77.8655 15.3282 79.1567 18.3974 80.464 21.5042C81.0468 22.8896 81.6329 24.2825 82.4273 25.4143C84.6348 28.5596 87.5231 28.9581 89.1604 28.9581C89.8595 28.9581 90.3378 28.937 90.7793 28.8113C91.0553 28.7064 91.1104 28.1612 90.6137 28.2241ZM75.7685 1.09033H74.2416C73.5424 1.09033 73.1561 1.55165 73.1561 2.26459V14.783H75.3821C78.8591 14.783 82.6119 13.0426 82.6119 7.88425C82.6119 2.26459 78.3808 1.09033 75.7685 1.09033Z" fill="black"/>
</svg>
