<svg width="34" height="24" viewBox="0 0 34 24" fill="none" xmlns="http://www.w3.org/2000/svg">
<path d="M29.3184 5.98828H24.8184V0.0117188H3.83008C3.00977 0.0117188 2.30664 0.304688 1.7207 0.890625C1.13477 1.47656 0.841797 2.17969 0.841797 3V19.4883H3.83008C3.83008 20.7305 4.26953 21.791 5.14844 22.6699C6.02734 23.5488 7.08789 23.9883 8.33008 23.9883C9.57227 23.9883 10.6328 23.5488 11.5117 22.6699C12.3906 21.791 12.8301 20.7305 12.8301 19.4883H21.8301C21.8301 20.7305 22.2695 21.791 23.1484 22.6699C24.0273 23.5488 25.0879 23.9883 26.3301 23.9883C27.5723 23.9883 28.6328 23.5488 29.5117 22.6699C30.3906 21.791 30.8301 20.7305 30.8301 19.4883H33.8184V12L29.3184 5.98828ZM28.5801 8.23828L31.5332 12H24.8184V8.23828H28.5801ZM8.33008 21C7.9082 21 7.55078 20.8535 7.25781 20.5605C6.96484 20.2676 6.81836 19.9102 6.81836 19.4883C6.81836 19.0898 6.96484 18.7441 7.25781 18.4512C7.55078 18.1582 7.9082 18.0117 8.33008 18.0117C8.75195 18.0117 9.10938 18.1582 9.40234 18.4512C9.69531 18.7441 9.8418 19.0898 9.8418 19.4883C9.8418 19.9102 9.69531 20.2676 9.40234 20.5605C9.10938 20.8535 8.75195 21 8.33008 21ZM11.6699 16.5C11.248 16.0312 10.75 15.6621 10.1758 15.3926C9.60156 15.123 8.98633 14.9883 8.33008 14.9883C7.67383 14.9883 7.05859 15.123 6.48438 15.3926C5.91016 15.6621 5.41211 16.0312 4.99023 16.5H3.83008V3H21.8301V16.5H11.6699ZM26.3301 21C25.9082 21 25.5508 20.8535 25.2578 20.5605C24.9648 20.2676 24.8184 19.9102 24.8184 19.4883C24.8184 19.0898 24.9648 18.7441 25.2578 18.4512C25.5508 18.1582 25.9082 18.0117 26.3301 18.0117C26.752 18.0117 27.1094 18.1582 27.4023 18.4512C27.6953 18.7441 27.8418 19.0898 27.8418 19.4883C27.8418 19.9102 27.6953 20.2676 27.4023 20.5605C27.1094 20.8535 26.752 21 26.3301 21Z" fill="#F5F5F7"/>
</svg>
