<svg width="37" height="36" viewBox="0 0 37 36" fill="none" xmlns="http://www.w3.org/2000/svg">
<path d="M18.1201 1.51172L4.62012 7.48828V16.4883C4.62012 18.5742 4.95996 20.6016 5.63965 22.5703C6.31934 24.5156 7.2627 26.2969 8.46973 27.9141C9.67676 29.5312 11.1006 30.9141 12.7412 32.0625C14.3818 33.2109 16.1748 34.0195 18.1201 34.4883C20.0654 34.0195 21.8584 33.2109 23.499 32.0625C25.1396 30.9141 26.5635 29.5312 27.7705 27.9141C28.9775 26.2969 29.9209 24.5156 30.6006 22.5703C31.2803 20.6016 31.6201 18.5742 31.6201 16.4883V7.48828L18.1201 1.51172ZM28.6318 16.4883C28.6318 18.1992 28.3623 19.8398 27.8232 21.4102C27.3076 23.0039 26.5811 24.4629 25.6436 25.7871C24.7061 27.1113 23.5928 28.2656 22.3037 29.25C21.0146 30.2109 19.6201 30.9258 18.1201 31.3945C16.6201 30.9258 15.2256 30.2109 13.9365 29.25C12.6475 28.2656 11.5342 27.1113 10.5967 25.7871C9.65918 24.4629 8.93262 23.0039 8.41699 21.4102C7.87793 19.8398 7.6084 18.1992 7.6084 16.4883V9.45703L18.1201 4.78125L28.6318 9.45703V16.4883ZM11.2295 17.4023L9.12012 19.5117L15.1318 25.4883L27.1201 13.5L25.0107 11.3555L15.1318 21.2695L11.2295 17.4023Z" fill="#F5F5F7"/>
</svg>
