<svg width="28" height="28" viewBox="0 0 28 28" fill="none" xmlns="http://www.w3.org/2000/svg">
<path d="M27.1268 3.83984L25.0526 1.30859C24.8417 1.07422 24.5897 0.880859 24.2968 0.728516C24.0038 0.576172 23.6815 0.5 23.33 0.5H5.32996C4.97839 0.5 4.65027 0.576172 4.34558 0.728516C4.04089 0.880859 3.7948 1.07422 3.6073 1.30859L1.53308 3.83984C1.29871 4.09766 1.12292 4.39062 1.00574 4.71875C0.88855 5.04688 0.829956 5.38672 0.829956 5.73828V24.5117C0.829956 25.332 1.12292 26.0352 1.70886 26.6211C2.2948 27.207 2.99792 27.5 3.81824 27.5H24.8417C25.662 27.5 26.3651 27.207 26.951 26.6211C27.537 26.0352 27.83 25.332 27.83 24.5117V5.73828C27.83 5.38672 27.7714 5.04688 27.6542 4.71875C27.537 4.39062 27.3612 4.09766 27.1268 3.83984ZM5.68152 3.48828H22.9784L24.1737 4.96484H4.48621L5.68152 3.48828ZM3.81824 24.5117V7.98828H24.8417V24.5117H3.81824ZM16.5096 11.0117H12.1503V15.5117H8.31824L14.33 21.4883L20.3417 15.5117H16.5096V11.0117Z" fill="#F5F5F7"/>
</svg>
