<svg width="18" height="18" viewBox="0 0 18 18" fill="none" xmlns="http://www.w3.org/2000/svg">
<g clip-path="url(#clip0_9_981)">
<path d="M17.4199 16.4004L13.1484 11.9355C13.6992 11.2793 14.1211 10.5527 14.4141 9.75586C14.707 8.95898 14.8535 8.12695 14.8535 7.25977C14.8535 6.26367 14.6602 5.32617 14.2734 4.44727C13.8867 3.55664 13.3652 2.7832 12.709 2.12695C12.0527 1.4707 11.2852 0.955078 10.4063 0.580078C9.52734 0.193359 8.58399 0 7.57617 0C6.58008 0 5.63672 0.193359 4.74609 0.580078C3.86719 0.955078 3.09961 1.4707 2.44336 2.12695C1.78711 2.7832 1.26563 3.55664 0.878906 4.44727C0.503906 5.32617 0.316406 6.26367 0.316406 7.25977C0.316406 8.26758 0.503906 9.21094 0.878906 10.0898C1.26563 10.9688 1.78711 11.7393 2.44336 12.4014C3.09961 13.0635 3.86719 13.582 4.74609 13.957C5.63672 14.3438 6.58008 14.5371 7.57617 14.5371C8.32617 14.5371 9.05567 14.4258 9.76465 14.2031C10.4736 13.9805 11.1328 13.6523 11.7422 13.2188L16.0664 17.7012C16.1484 17.7949 16.248 17.8682 16.3652 17.9209C16.4824 17.9736 16.6055 18 16.7344 18C16.8633 18 16.9834 17.9766 17.0947 17.9297C17.2061 17.8828 17.3086 17.8184 17.4023 17.7363C17.5898 17.5488 17.6865 17.3262 17.6924 17.0684C17.6982 16.8105 17.6074 16.5879 17.4199 16.4004ZM7.57617 1.89844C8.31445 1.89844 9.01172 2.03906 9.66797 2.32031C10.3242 2.60156 10.8955 2.98535 11.3818 3.47168C11.8682 3.95801 12.252 4.5293 12.5332 5.18555C12.8145 5.83008 12.9551 6.52148 12.9551 7.25977C12.9551 8.00977 12.8145 8.70703 12.5332 9.35156C12.252 10.0078 11.8682 10.5791 11.3818 11.0654C10.8955 11.5518 10.3242 11.9355 9.66797 12.2168C9.01172 12.498 8.31445 12.6387 7.57617 12.6387C6.83789 12.6387 6.14063 12.498 5.48438 12.2168C4.83984 11.9355 4.27441 11.5518 3.78809 11.0654C3.30176 10.5791 2.91797 10.0078 2.63672 9.35156C2.35547 8.70703 2.21484 8.00977 2.21484 7.25977C2.21484 6.52148 2.35547 5.83008 2.63672 5.18555C2.91797 4.5293 3.30176 3.95801 3.78809 3.47168C4.27441 2.98535 4.83984 2.60156 5.48438 2.32031C6.14063 2.03906 6.83789 1.89844 7.57617 1.89844Z" fill="#1E1E1E"/>
</g>
<defs>
<clipPath id="clip0_9_981">
<rect width="18" height="18" fill="white" transform="matrix(1 0 0 -1 0 18)"/>
</clipPath>
</defs>
</svg>
