<svg width="86" height="40" viewBox="0 0 86 40" fill="none" xmlns="http://www.w3.org/2000/svg">
<path d="M85.1569 8.47162H80.7917V29.2855H85.1569V8.47162Z" fill="black"/>
<path d="M16.7609 29.2679H22.1388L11.3132 16.1798L21.1436 8.47162H15.5038L5.1845 16.9207V0.939819H0.819336V29.2679H5.1845V21.0305L8.25758 18.6316L16.7609 29.2679Z" fill="black"/>
<path d="M70.4896 10.8529C69.7213 10.0062 68.7435 9.31829 67.5212 8.78913C66.456 8.31288 65.2512 8.06593 63.9242 7.99538C63.7495 7.99538 63.5749 7.97774 63.4003 7.97774C61.2875 7.97774 59.3668 8.43635 57.6556 9.33593C55.9444 10.2355 54.6697 11.5232 53.7966 13.2165C52.941 14.9098 52.522 16.7972 52.522 18.8609C52.522 20.9952 52.9934 22.865 53.9363 24.5054C54.8792 26.1458 56.2238 27.4334 57.935 28.333C59.6462 29.2502 61.532 29.7089 63.5924 29.7089C63.7146 29.7089 63.8194 29.7089 63.9242 29.7089C66.9275 29.6383 69.2149 28.6152 70.769 26.622V29.2502H74.8025V0.939819H70.4896V10.8529ZM68.8657 24.9464C67.5386 26.1987 65.9147 26.8337 64.0115 26.8337H63.9416C62.0733 26.8161 60.4668 26.1634 59.1049 24.8582C57.708 23.5352 57.027 21.542 57.027 18.8786C57.027 16.1269 57.673 14.0984 58.9826 12.8284C60.2748 11.5584 61.8987 10.9058 63.8369 10.9058H63.9591C65.8973 10.9411 67.5212 11.5937 68.8482 12.899C70.2102 14.2219 70.8737 16.3209 70.8737 19.1608C70.8563 21.7714 70.1927 23.694 68.8657 24.9464Z" fill="black"/>
<path d="M44.6995 10.7999C42.4645 8.91258 39.5659 7.97772 36.0213 7.97772H36.0038C32.8259 7.97772 30.1368 8.75383 27.9367 10.2884C25.2826 12.1405 23.9556 14.998 23.9556 18.8433C23.9556 22.3534 25.0556 25.0522 27.2907 26.9219C29.5082 28.7916 32.4243 29.7265 36.0038 29.7265H36.0213C38.2738 29.7265 40.3342 29.3031 42.2375 28.4565C44.1233 27.6098 45.5726 26.4104 46.5679 24.8758C47.5632 23.3412 48.0521 21.2422 48.0521 18.5611C48.0695 15.2626 46.952 12.6873 44.6995 10.7999ZM41.4343 24.8405C40.0024 26.1634 38.1865 26.8337 36.0213 26.8337H36.0038C33.8386 26.8337 32.0227 26.1634 30.5908 24.8405C29.159 23.5176 28.4256 21.5244 28.4256 18.8609C28.4256 16.1974 29.1416 14.2042 30.5908 12.8813C32.0227 11.5584 33.8386 10.9058 36.0038 10.9058H36.0213C38.169 10.9058 39.9675 11.5761 41.4168 12.899C42.8661 14.2219 43.582 16.1798 43.582 18.7551C43.5995 21.4891 42.8661 23.5176 41.4343 24.8405Z" fill="black"/>
<path d="M80.7917 5.19079V0.939819H82.887H85.1569V5.19079H80.7917Z" fill="black"/>
<path d="M2.89715 33.9422C3.90987 33.9422 4.62576 34.5948 4.62576 35.5826C4.62576 36.5528 3.89241 37.223 2.86223 37.223H1.74475V38.8282H0.819336V33.9422H2.89715ZM1.74475 36.4998H2.65271C3.31621 36.4998 3.70035 36.1647 3.70035 35.565C3.70035 34.9829 3.31621 34.6478 2.67017 34.6478H1.76221V36.4998H1.74475Z" fill="black"/>
<path d="M9.13098 38.8105H8.20557V33.9246H10.2659C11.3834 33.9246 12.0469 34.5066 12.0469 35.4415C12.0469 36.0941 11.6977 36.6233 11.0691 36.835L12.1866 38.8105H11.139L10.1262 36.9761H9.11352V38.8105H9.13098ZM9.13098 36.3058H10.1961C10.7897 36.3058 11.1215 36.0059 11.1215 35.4768C11.1215 34.9653 10.7723 34.6478 10.1786 34.6478H9.13098V36.3058Z" fill="black"/>
<path d="M20.4456 36.3764C20.4456 37.9286 19.5028 38.8987 18.0011 38.8987C16.4995 38.8987 15.5566 37.9286 15.5566 36.3764C15.5566 34.8241 16.4995 33.854 18.0011 33.854C19.5028 33.854 20.4456 34.8241 20.4456 36.3764ZM16.4995 36.3764C16.4995 37.47 17.0757 38.1579 18.0011 38.1579C18.9265 38.1579 19.5028 37.47 19.5028 36.3764C19.5028 35.2828 18.9091 34.5948 18.0011 34.5948C17.0757 34.5948 16.4995 35.2828 16.4995 36.3764Z" fill="black"/>
<path d="M24.0952 38.8105V33.9246H27.3778V34.6654H25.0206V36.1118H27.1858V36.8173H25.0206V38.8105H24.0952Z" fill="black"/>
<path d="M34.2925 38.8105H30.9575V33.9246H34.2925V34.6654H31.8829V35.9883H34.1703V36.6762H31.8829V38.0697H34.2925V38.8105Z" fill="black"/>
<path d="M38.6927 37.4523C38.7451 37.8933 39.2166 38.1932 39.8451 38.1932C40.4737 38.1932 40.8928 37.911 40.8928 37.5053C40.8928 37.1525 40.6309 36.9585 39.9848 36.7997L39.3213 36.6586C38.3785 36.4469 37.9245 36.0236 37.9245 35.318C37.9245 34.4537 38.7277 33.8716 39.8451 33.8716C40.9801 33.8716 41.7309 34.4537 41.7484 35.318H40.8753C40.8404 34.8594 40.4213 34.5948 39.8451 34.5948C39.2689 34.5948 38.8673 34.8594 38.8673 35.2651C38.8673 35.5826 39.1293 35.7766 39.7578 35.9178L40.3515 36.0412C41.3991 36.2705 41.8357 36.6762 41.8357 37.3994C41.8357 38.3343 41.0499 38.9164 39.8102 38.9164C38.6229 38.9164 37.8546 38.3696 37.8022 37.47H38.6927V37.4523Z" fill="black"/>
<path d="M46.1312 37.4523C46.1836 37.8933 46.655 38.1932 47.2836 38.1932C47.9122 38.1932 48.3313 37.911 48.3313 37.5053C48.3313 37.1525 48.0694 36.9585 47.4233 36.7997L46.7598 36.6586C45.8169 36.4469 45.3629 36.0236 45.3629 35.318C45.3629 34.4537 46.1661 33.8716 47.2836 33.8716C48.4186 33.8716 49.1694 34.4537 49.1868 35.318H48.3138C48.2789 34.8594 47.8598 34.5948 47.2836 34.5948C46.7074 34.5948 46.3058 34.8594 46.3058 35.2651C46.3058 35.5826 46.5677 35.7766 47.1963 35.9178L47.79 36.0412C48.8376 36.2705 49.2741 36.6762 49.2741 37.3994C49.2741 38.3343 48.4884 38.9164 47.2487 38.9164C46.0614 38.9164 45.2931 38.3696 45.2407 37.47H46.1312V37.4523Z" fill="black"/>
<path d="M52.8887 38.8105V33.9246H53.8141V38.8105H52.8887Z" fill="black"/>
<path d="M62.335 36.3764C62.335 37.9286 61.3922 38.8987 59.8905 38.8987C58.3889 38.8987 57.446 37.9286 57.446 36.3764C57.446 34.8241 58.3889 33.854 59.8905 33.854C61.3922 33.854 62.335 34.8241 62.335 36.3764ZM58.4064 36.3764C58.4064 37.47 58.9826 38.1579 59.908 38.1579C60.8334 38.1579 61.4096 37.47 61.4096 36.3764C61.4096 35.2828 60.816 34.5948 59.908 34.5948C58.9826 34.5948 58.4064 35.2828 58.4064 36.3764Z" fill="black"/>
<path d="M65.9846 38.8105V33.9246H66.7878L69.3371 37.3465H69.372V33.9246H70.2625V38.8105H69.4768L66.9275 35.3886H66.8926V38.8105H65.9846Z" fill="black"/>
<path d="M77.02 37.5582H75.1343L74.6978 38.8282H73.7549L75.5883 33.9422H76.6184L78.4518 38.8282H77.474L77.02 37.5582ZM75.3438 36.8879H76.8105L76.0946 34.8065H76.0771L75.3438 36.8879Z" fill="black"/>
<path d="M85.157 38.8105H81.8918V33.9246H82.8173V38.0697H85.157V38.8105Z" fill="black"/>
</svg>
