<svg width="20" height="20" viewBox="0 0 20 20" fill="none" xmlns="http://www.w3.org/2000/svg">
<path d="M17.998 9.7207C17.9473 7.57096 17.1686 5.74284 15.6621 4.23633C14.1556 2.72982 12.3275 1.95117 10.1777 1.90039V-0.00390625C11.498 0.0299473 12.7422 0.300781 13.9102 0.808594C15.0781 1.33333 16.1022 2.03581 16.9824 2.91602C17.8626 3.79622 18.5566 4.82031 19.0645 5.98828C19.5892 7.15625 19.86 8.40039 19.877 9.7207H17.998ZM13.4277 9.7207C13.36 8.8405 13.0215 8.0957 12.4121 7.48633C11.7858 6.87695 11.041 6.54688 10.1777 6.49609V4.5918C11.5658 4.6595 12.7507 5.18425 13.7324 6.16602C14.7311 7.14779 15.2559 8.33268 15.3066 9.7207H13.4277ZM18.5566 20.0039C16.2884 20.0039 14.054 19.4622 11.8535 18.3789C9.63607 17.2956 7.6556 15.8822 5.91211 14.1387C4.16862 12.4121 2.76367 10.4401 1.69727 8.22266C0.613932 6.00521 0.0722656 3.76237 0.0722656 1.49414C0.0722656 1.12174 0.199219 0.800131 0.453125 0.529297C0.723958 0.275391 1.05404 0.148438 1.44336 0.148438H5.42969C5.7513 0.148438 6.0306 0.25 6.26758 0.453125C6.50456 0.639322 6.6569 0.910156 6.72461 1.26562L7.46094 4.69336C7.51172 4.99805 7.50326 5.27734 7.43555 5.53125C7.38477 5.78516 7.25781 5.99675 7.05469 6.16602L4.36328 8.83203C5.26042 10.3216 6.28451 11.6419 7.43555 12.793C8.60352 13.944 9.9069 14.9258 11.3457 15.7383L13.9609 13.123C14.1641 12.8861 14.4095 12.7253 14.6973 12.6406C14.9681 12.556 15.2559 12.5475 15.5605 12.6152L18.8105 13.3008C19.1491 13.3854 19.4199 13.5547 19.623 13.8086C19.8262 14.0456 19.9277 14.3418 19.9277 14.6973V18.6328C19.9277 19.0221 19.8008 19.3438 19.5469 19.5977C19.276 19.8685 18.946 20.0039 18.5566 20.0039ZM3.34766 6.95312L5.4043 4.92188L4.8457 2.20508H2.1543C2.17122 2.88216 2.27279 3.61003 2.45898 4.38867C2.64518 5.16732 2.94141 6.02214 3.34766 6.95312ZM13.25 16.7539C13.9609 17.0755 14.7142 17.3379 15.5098 17.541C16.3053 17.7441 17.0924 17.8711 17.8711 17.9219V15.2051L15.2812 14.6719L13.25 16.7539Z" fill="#1E1E1E"/>
</svg>
